<?xml version="1.0" standalone="no"?>
<!DOCTYPE svg PUBLIC "-//W3C//DTD SVG 20010904//EN"
 "http://www.w3.org/TR/2001/REC-SVG-20010904/DTD/svg10.dtd">
<svg version="1.0" xmlns="http://www.w3.org/2000/svg"
 width="200.000000pt" height="300.000000pt" viewBox="0 0 200.000000 300.000000"
 preserveAspectRatio="xMidYMid meet">

<g transform="translate(0.000000,300.000000) scale(0.100000,-0.100000)"
fill="#000000" stroke="none">
<path d="M935 2888 c-77 -80 -115 -133 -115 -161 0 -10 12 -34 28 -53 35 -44
37 -94 4 -94 -13 0 -43 14 -67 30 -53 36 -60 37 -40 6 20 -31 13 -35 -55 -30
l-55 3 25 -20 24 -21 -24 -19 c-14 -10 -33 -19 -42 -19 -29 0 -20 -17 12 -23
34 -7 40 -31 11 -46 -13 -7 -17 -18 -13 -36 2 -14 8 -28 13 -31 23 -14 2 -37
-71 -75 -86 -44 -96 -57 -33 -40 21 6 53 11 71 11 l33 0 -5 -92 c-5 -93 -20
-158 -37 -158 -5 0 -9 11 -9 25 0 23 -35 70 -129 171 -29 32 -85 58 -60 28 6
-8 9 -14 5 -14 -3 0 28 -34 69 -75 72 -73 95 -103 95 -124 0 -17 -32 -1 -70
35 -19 18 -55 38 -80 44 -43 11 -104 62 -138 115 -13 20 -13 20 -6 0 4 -11 6
-29 6 -40 -2 -49 94 -124 160 -125 16 0 42 -13 61 -30 19 -16 42 -30 50 -30
20 0 33 -20 19 -29 -15 -9 -52 -111 -45 -127 3 -9 13 -12 29 -8 19 5 24 1 30
-20 11 -47 1 -56 -68 -56 -35 1 -81 4 -103 9 -51 10 -140 -8 -219 -43 -32 -14
-67 -26 -77 -26 -10 0 -21 -5 -25 -12 -7 -11 13 -9 80 8 16 4 26 2 26 -5 0 -6
-6 -11 -12 -11 -7 -1 -31 -22 -53 -47 l-40 -47 35 24 c19 14 48 35 63 48 29
23 107 32 107 12 0 -5 -5 -10 -11 -10 -5 0 -7 -4 -4 -10 3 -6 21 -2 43 10 24
13 56 20 91 20 l54 0 -39 -31 c-45 -35 -104 -106 -104 -125 0 -7 -17 -41 -39
-76 -31 -50 -40 -76 -44 -125 -3 -35 -3 -63 0 -63 2 0 18 30 35 67 23 52 49
85 116 150 57 55 93 83 109 83 13 0 23 -4 23 -9 0 -5 9 -7 20 -4 11 3 20 4 20
2 0 -14 -74 -208 -95 -249 -31 -62 -20 -65 20 -5 28 42 55 59 55 34 0 -7 27
15 60 47 33 32 69 59 82 61 12 2 29 10 38 18 18 16 40 20 40 7 0 -4 -13 -23
-29 -42 -24 -29 -26 -36 -15 -48 8 -7 14 -17 14 -22 0 -15 -92 -111 -122 -126
-19 -10 -28 -21 -24 -30 3 -9 -12 -32 -41 -59 -26 -25 -43 -45 -39 -45 27 0
99 57 206 164 68 69 126 123 128 121 6 -5 -17 -130 -31 -175 -6 -19 -17 -44
-24 -55 -7 -11 -13 -28 -13 -38 0 -10 -11 -40 -25 -67 -14 -27 -25 -58 -25
-68 0 -10 -4 -22 -9 -28 -6 -5 -26 -52 -46 -104 -43 -112 -58 -132 -93 -123
-24 6 -25 4 -19 -26 4 -18 3 -30 -1 -28 -10 6 -28 -15 -26 -30 1 -7 2 -19 3
-26 0 -8 12 -20 26 -27 35 -19 41 -64 16 -130 -11 -29 -18 -56 -16 -60 2 -4
-2 -28 -10 -54 -8 -27 -13 -52 -10 -56 3 -5 -11 -46 -31 -93 -34 -83 -35 -86
-18 -112 27 -42 102 -72 134 -55 44 23 49 38 48 125 -1 54 3 89 11 99 7 8 10
20 6 25 -3 6 1 21 10 34 8 13 12 26 9 29 -3 4 1 21 9 40 9 18 18 50 22 71 4
25 19 52 46 79 31 32 39 48 39 78 0 32 13 66 57 145 6 11 16 42 22 69 7 27 21
61 31 76 11 16 20 39 20 53 0 13 7 41 15 61 8 19 14 39 13 43 -4 19 24 92 48
123 40 54 65 107 100 215 18 55 34 98 34 95 3 -28 -1 -323 -5 -350 -20 -141
-22 -177 -8 -230 19 -74 15 -93 -22 -97 -50 -6 -59 -11 -45 -27 9 -11 9 -20 0
-37 -10 -18 -10 -21 2 -16 8 3 22 -2 31 -11 9 -10 25 -25 35 -35 24 -22 41
-104 35 -166 -5 -57 -6 -107 -1 -146 3 -26 9 -32 47 -44 35 -11 48 -11 63 -2
16 10 24 9 45 -6 92 -65 128 -73 193 -44 25 11 59 31 75 45 25 21 28 27 15 36
-8 5 -31 9 -50 8 -46 -1 -98 26 -106 56 -3 13 -16 28 -28 34 -27 12 -70 99
-79 158 -5 27 -2 54 7 75 9 21 13 56 10 89 -12 166 -14 332 -4 350 6 11 13 46
16 78 7 78 29 157 54 197 27 44 47 160 30 180 -6 8 -17 12 -25 9 -16 -7 -24
26 -30 128 -4 74 -28 172 -46 193 -5 5 -9 15 -9 22 0 11 5 11 20 3 25 -13 60
-81 60 -115 0 -16 6 -25 15 -25 8 0 15 -5 15 -12 0 -6 3 -9 6 -6 12 13 -18 87
-61 148 -25 35 -45 68 -45 73 0 4 20 -8 44 -27 l43 -36 42 30 c22 17 41 28 41
24 0 -13 32 28 45 58 9 23 11 47 5 78 -4 25 -6 70 -3 100 3 30 4 70 4 89 -1
18 8 48 19 66 11 18 20 48 20 68 0 20 5 39 10 42 11 7 13 45 4 69 -9 23 -24 9
-25 -22 l-1 -27 -13 31 c-13 30 -42 51 -53 39 -3 -3 0 -16 8 -29 7 -14 9 -33
6 -43 -7 -16 -9 -15 -22 9 -13 24 -42 48 -58 48 -13 0 -5 -38 9 -44 17 -6 20
-51 5 -61 -5 -3 -10 -2 -10 3 0 14 -40 52 -55 52 -22 0 -18 -20 8 -48 17 -18
22 -35 22 -77 0 -29 3 -56 7 -60 7 -7 -20 -92 -32 -100 -11 -7 -33 51 -25 65
4 6 -3 26 -14 45 -20 35 -20 35 -1 35 29 0 24 17 -6 24 -21 6 -23 10 -14 21 9
11 6 14 -16 17 -39 4 -39 18 2 66 19 23 34 42 32 42 -2 0 -18 -4 -36 -9 -24
-7 -32 -6 -32 3 0 14 25 39 50 50 8 3 41 21 72 39 121 69 179 119 97 83 -79
-34 -213 -70 -217 -58 -2 8 -17 1 -40 -18 -23 -19 -48 -30 -67 -30 -25 1 -27
2 -12 11 23 14 47 72 40 100 -5 16 -3 20 6 14 9 -5 8 1 -2 21 -8 16 -12 34
-10 41 2 6 -6 18 -19 27 -13 9 -23 22 -23 28 0 7 -17 16 -37 21 -32 8 -42 5
-81 -22 -45 -31 -82 -94 -79 -136 1 -11 -1 -14 -4 -7 -5 10 -9 10 -20 1 -11
-9 -18 -8 -31 2 -9 8 -19 13 -22 12 -10 -3 0 38 22 97 12 30 20 60 19 67 -2 7
4 28 12 48 8 19 14 35 13 35 -1 0 -34 -33 -72 -72z m-45 -814 c0 -27 6 -36 30
-49 17 -9 30 -19 30 -23 0 -16 -49 -63 -70 -67 -12 -2 -33 -11 -46 -20 -30
-19 -33 -40 -3 -25 39 21 34 -1 -9 -42 -24 -22 -46 -38 -49 -35 -3 3 3 31 12
61 14 46 15 59 5 71 -18 22 -6 162 16 186 15 16 17 16 50 -3 28 -16 34 -26 34
-54z m0 -463 c-30 -48 -49 -63 -51 -41 -5 44 -1 52 36 75 22 13 41 22 43 20 2
-1 -11 -26 -28 -54z"/>
</g>
</svg>
